<?xml version="1.0" encoding="utf-8"?>
<!-- Generator: Adobe Illustrator 25.4.1, SVG Export Plug-In . SVG Version: 6.00 Build 0)  -->
<svg version="1.1" id="Layer_1" xmlns="http://www.w3.org/2000/svg" xmlns:xlink="http://www.w3.org/1999/xlink" x="0px" y="0px"
	 viewBox="0 0 62.5 56.5" style="enable-background:new 0 0 62.5 56.5;" xml:space="preserve">
<style type="text/css">
	
		.st0{fill-rule:evenodd;clip-rule:evenodd;stroke:url(#logo_x2F_foofighters_00000061469345804145181200000006940505190580460427_);stroke-width:0.5;stroke-miterlimit:10;}
</style>
<g id="Desktop">
	<g id="_x31_366-home-01" transform="translate(-24.000000, -24.000000)">
		
			<linearGradient id="logo_x2F_foofighters_00000116232614633001742420000001982763272803233452_" gradientUnits="userSpaceOnUse" x1="24" y1="52.25" x2="86.5002" y2="52.25">
			<stop  offset="0" style="stop-color:#FFFFFF"/>
			<stop  offset="1" style="stop-color:#000000"/>
		</linearGradient>
		
			<path id="logo_x2F_foofighters" style="fill-rule:evenodd;clip-rule:evenodd;stroke:url(#logo_x2F_foofighters_00000116232614633001742420000001982763272803233452_);stroke-width:0.5;stroke-miterlimit:10;" d="
			M61.9,65.4c-0.7,0-1.5,0-2.3,0c-0.9,0-1.7-0.2-2.5-0.6c-1.3-0.7-1.8-1.8-2-3.2c0.3,0,0.5-0.1,0.8-0.1c2.1,0,4.3,0,6.4,0
			c0.7,0,0.7,0,0.9-0.7c1.5-4.8,4.3-8.7,8.3-11.9c1.6-1.2,3.3-2.3,5-3.2c0.1-0.1,0.3-0.2,0.4-0.2c0-0.1,0-0.1,0-0.2
			c-2.2,0-4.4-0.1-6.6-0.1c-2.2,0-4.3,0.2-6.5,0.8c-2.7,0.8-4.9,2.4-6.4,4.8c-1.1,1.7-1.8,3.5-2.3,5.4c-0.2,0.6-0.4,1.3-0.8,1.8
			c-0.6,1.1-1.5,1.1-2.3,0.3c-0.8-0.9-1.3-2-1.6-3.2c-0.5-2-0.4-3.9,0.2-5.9c0-0.1,0.1-0.3,0.1-0.4c0,0,0-0.1,0-0.2
			c-0.9,0-1.9-0.1-2.8-0.1c-0.3,0-0.4,0.2-0.5,0.5c-0.5,1.2-1,2.5-1.6,3.7c-2,3.5-4.6,6.5-8,8.7c-2,1.3-4.2,2.1-6.7,2
			c-1.7-0.1-3.2-0.6-4.6-1.6c-0.6-0.4-1.1-0.9-1.6-1.3c-0.4-0.4-0.7-0.9-0.7-1.4c0-0.7,0.5-1.2,1.3-1.1c0.3,0,0.6,0.1,0.8,0.3
			c1.3,0.9,2.7,0.7,4.1,0.3c2-0.6,3.5-1.9,4.8-3.5c1.4-1.7,2.2-3.7,2.9-5.7c0.1-0.2,0.1-0.4,0.2-0.7c-0.5,0-1,0-1.5,0
			c-1,0-2-0.1-2.9-0.5c-1.5-0.5-2.2-1.6-2.5-3.1c-0.1-0.3,0-0.5,0.4-0.5c0.2,0,0.4,0,0.6,0c2.1,0,4.2,0,6.3,0c0.7,0,0.7,0,0.8-0.6
			c1.2-4.1,3.4-7.4,6.4-10.3c2.1-2,4.6-3.6,7.2-4.9c0.1,0,0.1-0.1,0.3-0.2c-2.7,0-5.3-0.2-7.8-0.1c-2.1,0.1-4.1,0.3-6.1,1
			c-2.9,1-5,3-6.5,5.7c-0.8,1.4-1.3,3-1.8,4.5c-0.2,0.6-0.4,1.2-0.7,1.7c-0.5,0.9-1.3,1.1-2.1,0.3c-0.5-0.6-1-1.2-1.3-1.9
			c-1.2-3.2-1-6.3,0.6-9.3c1.7-3.1,4.3-5.1,7.8-5.7c1.4-0.2,2.9-0.2,4.3-0.2c1.9,0,3.8,0.1,5.8,0.1c1.5,0,3.1,0,4.6,0
			c2.7,0,5.5-0.1,8.2-0.1c0.6,0,1.2-0.1,1.8-0.1c0.5,0,1,0.1,1.4,0.4c1.1,0.6,1.1,2,0.1,2.7c-0.3,0.2-0.5,0.3-0.8,0.4
			c-2.3,0.7-4.2,2.1-5.8,3.8c-1.9,2.1-3.2,4.4-4.4,6.9c-0.8,1.8-1.5,3.7-2.1,5.6c0,0.1,0,0.2-0.1,0.3c0.2,0,0.4,0.1,0.5,0.1
			c1.3,0,2.6,0,3.9,0c0.4,0,0.6-0.1,0.9-0.4c1.8-1.6,3.9-2.5,6.3-2.8c0.4,0,0.8,0,1.2,0c6.3,0,12.6,0,18.9,0c1.2,0,2.4-0.1,3.7-0.1
			c0.5,0,1,0.2,1.4,0.4c0.9,0.5,1,1.6,0.3,2.4c-0.3,0.3-0.6,0.5-1,0.6c-3.1,1-5.3,3-7.2,5.5c-2.4,3.3-4,6.9-5.1,10.8
			c0,0.2-0.1,0.3-0.1,0.6c0.3,0,0.6,0,0.8,0c2.4,0,4.8,0,7.3,0c0.2,0,0.4,0,0.6,0c0.4,0,0.5,0.1,0.4,0.6c-0.5,1.9-1.7,3-3.8,3.4
			c-1.5,0.3-3.1,0.1-4.6,0.1c-0.4,0-0.8,0-1.1,0c-0.4-0.1-0.6,0.1-0.7,0.5c-0.5,1.6-1.3,3.1-2.2,4.6c-1.7,2.7-3.8,5.1-6.5,7
			c-1.6,1.2-3.4,2.1-5.4,2.5c-3.4,0.7-6.2-0.4-8.6-2.8c-0.2-0.2-0.4-0.5-0.5-0.8c-0.2-0.4-0.2-0.9,0.2-1.3c0.3-0.3,0.7-0.4,1.2-0.3
			c0.3,0.1,0.5,0.1,0.7,0.3c1,0.7,2.2,0.6,3.3,0.4c1.9-0.4,3.5-1.4,4.8-2.8c1.9-2,3-4.3,3.7-6.9c0-0.1,0-0.2,0-0.3
			C61.9,65.5,61.9,65.5,61.9,65.4"/>
	</g>
</g>
</svg>
